<?xml version="1.0" encoding="utf-8"?>
<!-- Generator: Adobe Illustrator 25.2.1, SVG Export Plug-In . SVG Version: 6.00 Build 0)  -->
<svg version="1.1" id="ae636c83-9a69-4d8f-8683-8786b472330f"
	 xmlns="http://www.w3.org/2000/svg" xmlns:xlink="http://www.w3.org/1999/xlink" x="0px" y="0px" viewBox="0 0 643.5 542.3"
	 style="enable-background:new 0 0 643.5 542.3;" xml:space="preserve">
<style type="text/css">
	.st0{fill:#E6E6E6;}
	.st1{fill:#2F2E41;}
	.st2{fill:#FFFFFF;}
	.st3{fill:#3F3D56;}
	.st4{fill:#FEFE00;}
	.st5{fill:#0BD147;}
</style>
<ellipse class="st0" cx="567" cy="537" rx="70" ry="5.3"/>
<ellipse class="st0" cx="302.5" cy="532.4" rx="70" ry="5.3"/>
<circle class="st1" cx="569" cy="475.9" r="43.1"/>
<rect x="575.5" y="509.7" class="st1" width="13.1" height="23.4"/>
<rect x="549.3" y="509.7" class="st1" width="13.1" height="23.4"/>
<ellipse class="st1" cx="577.7" cy="533.4" rx="10.9" ry="4.1"/>
<ellipse class="st1" cx="551.5" cy="532.9" rx="10.9" ry="4.1"/>
<circle class="st2" cx="567.9" cy="465" r="14.7"/>
<circle class="st3" cx="567.9" cy="465" r="4.9"/>
<path class="st0" d="M610.7,435.9c3.5-15.6-7.6-31.3-24.8-35.1s-33.9,5.7-37.4,21.2s7.9,21.3,25.1,25.2S607.3,451.5,610.7,435.9z"/>
<g>
	<path class="st0" d="M162.3,150.8c5.2-1.6,10.5-3.4,15.8-4.8c5.4-1.5,10.9-2.3,16.5-1.7c3,0.3,6.2,0.6,7.4,4c1.3,3.3-1,5.8-3,7.9
		c-7.2,7.4-16.3,11.8-25.8,15.3c-7.9,2.9-16.1,5-24.7,4.6c-3.3-0.2-7.1-0.3-8.5-4c-1.3-3.5,1.4-5.9,3.5-8.4c1.6-1.8,3.9-2.9,5.2-5.1
		C153.2,155.9,157.7,153.4,162.3,150.8z"/>
	<path class="st0" d="M165.5,207.2c-2.1-0.3-4.3-0.5-6.4-1c-3.9-1-5.1-3.7-3.4-7.3c2-4.2,5.4-7.2,9-9.9
		c13.7-10.1,28.9-16.8,46.2-18.1c0,0,0.2-0.2,0.2-0.4c0.2-2-1.3-5.2,0.7-5.7c1.7-0.5,2.6,2.9,3.6,4.7c7.5,14.3,16.3,27.5,29.1,37.8
		c11.4,9.2,24.4,15.5,37.7,21.3c17.2,7.5,34.7,14.2,50.8,24c53.9,32.8,68.6,101.8,32.5,153.3c-38.2,54.6-119.5,57.6-161.6,6
		c-14.4-17.7-21.2-38.2-22.5-60.7c-1.8-31.6-4.1-63.1-9.4-94.4c-2.4-14.1-4.9-28.2-7.1-42.4c-0.4-2.4-1.7-5.1,0.7-7.3
		c1.1,1.9,2.4,3.8,3.4,5.9c8.3,17.4,13.4,35.9,18,54.6c6.7,26.9,10,54.4,13,82c1.4,12.7,4.1,25,11.1,36c0.8,0.9,1.9,1.7,2.2,2.8
		c1.6,5.8,5.2,10.3,8.8,14.8c28.2,35.5,77,42.3,113.4,15.1c23.5-17.5,34.3-41.9,33.4-71.1c-0.6-19.5-9.3-36.3-19.9-52.2
		c-0.2-0.3-0.8-0.4-1.2-0.6c0-0.4,0.3-1,0.1-1.3c-7.2-9.8-15.7-18.3-26-24.9c-15-9.7-31.3-16.9-47.1-25c-15-7.7-29.3-16.6-41-29
		c-1.7-1.8-3.4-3.7-5.3-5.9c-0.4,1.8-0.6,3.1-0.9,4.3c-2.5,3.6-5.3,6.8-9.3,9.1c-7.4,4.3-14.8,8.1-23.2,10c-5,1.1-9.9,1-14.8,0.1
		c-4.7-4.1-4.9-6.9-0.8-12c0.8-1,1.6-2.1,2.6-2.9c12.4-10,26.1-16,42.7-13.7c-3.7-6.2-7.5-12.3-10.1-19.4
		c-9,8.7-19.5,14.3-30.7,18.6C178,204.8,171.7,205.7,165.5,207.2z"/>
	<path class="st4" d="M176.7,426.3c3.1-1.7,5.6-3.6,8.3-1.9c2.9,1.8,2,5.1,1.5,7.9c-1.9,8.8-5.9,16.7-10.5,24.4
		c-7.9,13.4-17.1,25.9-28.9,36.1c-2.5,2.2-5.2,4.2-8.4,5.3c-4.1,1.4-6.3,0-6.2-4.3c0.1-5.5,2.1-10.5,4.3-15.3
		c8.9-19,20.6-35.9,36.5-49.7C174.6,427.7,176,426.8,176.7,426.3z"/>
	<path class="st4" d="M393.7,280.3c9.3-4.4,19.2-5.8,29.3-6.6c15.1-1.2,30.1-1.1,44.8,2.9c2.4,0.7,4.8,1.5,6.8,3
		c3.4,2.3,3.5,4.9,0.3,7.4c-2.7,2.1-5.7,3.3-9,4.2c-22.5,5.8-45.2,6.6-67.9,1.1c-2.3-0.6-4.5-1.4-6.5-2.8c-3.9-2.6-3.9-5.4,0-8
		C392.2,281,393,280.7,393.7,280.3z"/>
	<path class="st4" d="M401.2,373.7c4-1.7,9.1-2.2,14.2-2.2c20.4-0.1,40.2,3,58.7,11.9c2,1,3.9,2.2,5.6,3.8c3.3,3.1,2.7,6.2-1.4,8.1
		c-3,1.3-6.1,2-9.3,2.2c-22.3,1.3-43.7-2-64-11.5c-2-0.9-3.9-2.2-5.6-3.7C395.9,378.9,396.4,376.2,401.2,373.7z"/>
	<path class="st4" d="M387.8,480.8c3.5,6.2,7,12.8,8.4,20.3c0.7,3.5,1.8,7.5-1.7,9.8c-3.5,2.3-6.8-0.2-9.8-2.2
		c-10.1-6.9-17.2-16.6-23.4-26.9c-3.5-5.9-6.4-12.2-7.8-19c-0.1-0.6-0.3-1.2-0.3-1.7c-0.2-2.8-0.8-5.9,1.9-7.9
		c2.9-2,5.8-0.4,8.3,1.1c8,4.8,13.9,11.8,19.3,19.2C384.5,475.7,386.1,478.1,387.8,480.8z"/>
	<path class="st4" d="M347.8,294.4c0.4,0.2,1,0.3,1.2,0.6c10.6,15.9,19.2,32.7,19.9,52.2c0.9,29.2-9.9,53.6-33.4,71.1
		c-36.4,27.2-85.2,20.4-113.4-15.1c-3.6-4.5-7.2-9.1-8.8-14.8c-0.3-1-1.4-1.9-2.2-2.8c-4.6-13.9-6.6-28.2-8.1-42.7
		c-3.7-35.7-9.8-70.9-21.2-105.1c-0.6-1.9-2-3.8-1.4-6c4.9,1,9.8,1,14.8-0.1c8.4-1.9,15.9-5.7,23.2-10c4-2.3,6.8-5.5,9.3-9.1
		c1.5-2.2,2.2-0.7,2.9,0.6c4.4,7.9,10.8,14.1,17.8,19.6c13.6,10.7,28.8,18.7,44.2,26.4c8.1,4,16.1,8.1,24.2,12.1
		C328.4,277.1,338.6,285.1,347.8,294.4z"/>
</g>
<path class="st1" d="M110.3,190c0,6.6-1.5,13.1-4.4,19c-0.3,0.7-0.7,1.3-1,2H29.7c-0.4-0.7-0.7-1.3-1-2
	c-10.5-21.3-1.8-47.2,19.6-57.7c21.3-10.5,47.2-1.8,57.7,19.6C108.8,176.8,110.3,183.3,110.3,190L110.3,190z"/>
<path class="st5" d="M25.5,149.9c-3.5-15.6,7.6-31.3,24.8-35.1s33.9,5.7,37.4,21.2s-7.9,21.3-25.1,25.2S28.9,165.5,25.5,149.9z"/>
<path class="st3" d="M129,77H5c-2.8,0-5,2.2-5,5v124c0,2.8,2.2,5,5,5h124c2.8,0,5-2.2,5-5V82C134,79.2,131.8,77,129,77z M132,206
	c0,1.7-1.3,3-3,3H5c-1.7,0-3-1.3-3-3V82c0-1.7,1.3-3,3-3h124c1.7,0,3,1.3,3,3V206z"/>
<ellipse transform="matrix(0.357 -0.9341 0.9341 0.357 -190.3528 590.1676)" class="st1" cx="333.5" cy="433.4" rx="21.5" ry="6.8"/>
<ellipse transform="matrix(0.1602 -0.9871 0.9871 0.1602 -213.1997 681.1655)" class="st1" cx="293.7" cy="465.9" rx="43.1" ry="43.1"/>
<rect x="275.9" y="505.1" class="st1" width="13.1" height="23.4"/>
<rect x="302.1" y="505.1" class="st1" width="13.1" height="23.4"/>
<ellipse class="st1" cx="286.8" cy="528.9" rx="10.9" ry="4.1"/>
<ellipse class="st1" cx="313" cy="528.3" rx="10.9" ry="4.1"/>
<path class="st5" d="M251.9,425.8c-3.5-15.6,7.6-31.3,24.8-35.1s33.9,5.7,37.4,21.2s-7.9,21.3-25.1,25.2S255.4,441.4,251.9,425.8z"
	/>
<ellipse transform="matrix(0.756 -0.6546 0.6546 0.756 -232.0519 269.3303)" class="st1" cx="245.2" cy="445.9" rx="6.8" ry="21.5"/>
<circle class="st1" cx="582" cy="344.6" r="42"/>
<rect x="588.6" y="377.6" transform="matrix(1 -4.648493e-03 4.648493e-03 1 -1.8018 2.7698)" class="st1" width="12.8" height="22.9"/>
<rect x="563" y="377.7" transform="matrix(1 -4.648493e-03 4.648493e-03 1 -1.8026 2.6511)" class="st1" width="12.8" height="22.9"/>
<ellipse transform="matrix(0.8637 -0.504 0.504 0.8637 -125.8311 340.612)" class="st1" cx="566.8" cy="402.9" rx="10.6" ry="4"/>
<ellipse transform="matrix(0.8637 -0.504 0.504 0.8637 -122.3656 353.1938)" class="st1" cx="591.8" cy="402.8" rx="10.6" ry="4"/>
<circle class="st2" cx="580.9" cy="334" r="14.4"/>
<circle class="st3" cx="575.9" cy="327.9" r="4.8"/>
<path class="st5" d="M622.5,305.4c3.3-15.2-7.6-30.5-24.4-34.2s-33.1,5.7-36.4,20.9s7.8,20.8,24.6,24.4S619.2,320.6,622.5,305.4z"/>
<ellipse transform="matrix(0.3892 -0.9212 0.9212 0.3892 30.7911 693.1805)" class="st1" cx="538.1" cy="323.4" rx="6.6" ry="21"/>
<circle class="st2" cx="68.3" cy="179.1" r="14.7"/>
<circle class="st3" cx="77.4" cy="179.9" r="4.9"/>
<ellipse transform="matrix(0.2239 -0.9746 0.9746 0.2239 -103.3037 272.7873)" class="st1" cx="119.6" cy="201.3" rx="6" ry="20.7"/>
<ellipse transform="matrix(0.5223 -0.8527 0.8527 0.5223 -146.6382 175.1869)" class="st1" cx="83.1" cy="218.5" rx="6" ry="20.7"/>
<ellipse transform="matrix(0.3892 -0.9212 0.9212 0.3892 51.1461 793.517)" class="st1" cx="623.9" cy="358.2" rx="6.6" ry="21"/>
<path class="st2" d="M590.5,363c0,5.3-4.2,9.6-9.5,9.6c-5.3,0-9.6-4.2-9.6-9.5c0,0,0,0,0,0l0,0c0-5.3,4.3-6.4,9.5-6.4
	S590.4,357.7,590.5,363z"/>
</svg>
