<svg xmlns="http://www.w3.org/2000/svg" viewBox="0 0 544.72 122.8"><defs><style>.cls-1{fill:#0bd147;}.cls-2{fill:#125d6a;}.cls-3{font-size:50px;fill:#fdf6f1;font-family:CaviarDreams-Bold, Caviar Dreams;font-weight:700;letter-spacing:0.2em;}.cls-4{letter-spacing:0.2em;}.cls-5{letter-spacing:0.2em;}.cls-6{letter-spacing:0.16em;}</style></defs><g id="Layer_2" data-name="Layer 2"><g id="Layer_1-2" data-name="Layer 1"><path class="cls-1" d="M56.2,57.23A31.16,31.16,0,0,0,25.15,26.12h0a7.29,7.29,0,1,1,7.18-7.29H43.88A18.85,18.85,0,0,0,25.15,0H25a18.84,18.84,0,0,0,.05,37.67h0a19.56,19.56,0,0,1,0,39.12h0a29.79,29.79,0,0,1-12.81-2.68,36.76,36.76,0,0,1-8.85-6L0,87.71a16.71,16.71,0,0,0,9.82,6s.69-7.81,4.81-7.09h0a31,31,0,0,0,10.48,1.81,12,12,0,0,0,1.54-.1A31.15,31.15,0,0,0,56.2,57.23Z"/><path class="cls-2" d="M18,44a16.88,16.88,0,0,1-9.9-6.18L5,60.42s4.6,5.4,10.51,7.18Z"/><text class="cls-3" transform="translate(96.81 66.45) scale(1.02 1)">SA<tspan class="cls-4" x="80.47" y="0">B</tspan><tspan class="cls-5" x="117.72" y="0">A DIGI</tspan><tspan class="cls-6" x="326.6" y="0">T</tspan><tspan x="360.55" y="0">AL</tspan></text></g></g></svg>